<svg id="Capa_1" data-name="Capa 1" xmlns="http://www.w3.org/2000/svg" viewBox="0 0 165.95 23.25"><defs><style>.cls-1{fill:#fff;}</style></defs><title>Sin título-1</title><path class="cls-1" d="M117.73,7.05a2.05,2.05,0,0,1,.17-.83,2,2,0,0,1,.47-.67,2.18,2.18,0,0,1,.73-.44A2.64,2.64,0,0,1,120,5a3.2,3.2,0,0,1,.59.06,1.68,1.68,0,0,1,.56.21.44.44,0,0,1,.23.38.5.5,0,0,1-.11.33.38.38,0,0,1-.31.13,1.44,1.44,0,0,1-.4-.09,1.58,1.58,0,0,0-.54-.11,1.2,1.2,0,0,0-.67.17,1,1,0,0,0-.39.46,1.6,1.6,0,0,0-.13.65,1.31,1.31,0,0,0,.4,1.06,1.16,1.16,0,0,0,.79.27,1.21,1.21,0,0,0,.42-.06l.31-.13a.62.62,0,0,1,.21,0,.43.43,0,0,1,.33.13.46.46,0,0,1,.12.32.52.52,0,0,1-.33.45,2.34,2.34,0,0,1-1.13.24,2.55,2.55,0,0,1-.84-.14,2.12,2.12,0,0,1-.71-.4,2.25,2.25,0,0,1-.71-1.8" transform="translate(-2.02 -3.38)"/><path class="cls-1" d="M122.14,7.67a1,1,0,0,0,.17.57.57.57,0,0,0,.5.24.7.7,0,0,0,.65-.4.82.82,0,0,0,.09-.37.93.93,0,0,0-.18-.59.66.66,0,0,0-.56-.24.58.58,0,0,0-.49.24.88.88,0,0,0-.18.54ZM123.58,9a1.19,1.19,0,0,1-.38.3,1.09,1.09,0,0,1-.47.09,1.57,1.57,0,0,1-1-.35,1.62,1.62,0,0,1-.6-1.32,1.59,1.59,0,0,1,.54-1.24,1.51,1.51,0,0,1,1-.43,1.19,1.19,0,0,1,.48.09,1.53,1.53,0,0,1,.41.28.52.52,0,0,1,.49-.34.53.53,0,0,1,.37.14.44.44,0,0,1,.15.34V8.78a.56.56,0,0,1-.14.39.48.48,0,0,1-.38.16.5.5,0,0,1-.49-.37" transform="translate(-2.02 -3.38)"/><path class="cls-1" d="M124.85,7.05a.87.87,0,0,1,.3-.67,1.35,1.35,0,0,1,1-.37,1.67,1.67,0,0,1,.9.23c.19.13.29.26.29.41a.4.4,0,0,1-.12.28.4.4,0,0,1-.3.13,2.15,2.15,0,0,1-.4-.13,1.23,1.23,0,0,0-.42-.1c-.16,0-.23.06-.24.15a.18.18,0,0,0,.09.15,1,1,0,0,0,.23.11l.21.08a2.26,2.26,0,0,1,.77.4.78.78,0,0,1,.25.56,1,1,0,0,1-.38.79,1.47,1.47,0,0,1-.94.28,2.54,2.54,0,0,1-.56-.07,1.56,1.56,0,0,1-.54-.22.46.46,0,0,1-.23-.39.45.45,0,0,1,.42-.41h.14l.13,0,.13.05.14.06a1.09,1.09,0,0,0,.4.1.41.41,0,0,0,.21-.06.16.16,0,0,0,.1-.15.17.17,0,0,0-.1-.16L126,8l-.28-.09a2,2,0,0,1-.66-.35.68.68,0,0,1-.23-.54" transform="translate(-2.02 -3.38)"/><path class="cls-1" d="M128.38,7.67a1,1,0,0,0,.17.57.57.57,0,0,0,.5.24.7.7,0,0,0,.65-.4.84.84,0,0,0,.09-.37.94.94,0,0,0-.18-.59.66.66,0,0,0-.56-.24.58.58,0,0,0-.49.24.89.89,0,0,0-.18.54ZM129.82,9a1.19,1.19,0,0,1-.38.3,1.11,1.11,0,0,1-.48.09A1.56,1.56,0,0,1,128,9a1.61,1.61,0,0,1-.6-1.32,1.58,1.58,0,0,1,.54-1.24,1.51,1.51,0,0,1,1-.43,1.19,1.19,0,0,1,.48.09,1.51,1.51,0,0,1,.4.28.52.52,0,0,1,.49-.34.53.53,0,0,1,.37.14.43.43,0,0,1,.15.34V8.78a.58.58,0,0,1-.14.39.49.49,0,0,1-.38.16.5.5,0,0,1-.49-.37" transform="translate(-2.02 -3.38)"/><path class="cls-1" d="M151.5,10.08a1,1,0,0,1-.45-.74,1,1,0,0,1,.18-.71,1.33,1.33,0,0,1,.62-.46h0l2.12-1,.39-.08a1.3,1.3,0,0,1,.84.19,1,1,0,0,1,.47.68,1.06,1.06,0,0,1-.71,1.2l-2.09,1-.46.12a1.26,1.26,0,0,1-.9-.23ZM168,19.39a4.42,4.42,0,0,1-1.28,3.32,4.61,4.61,0,0,1-1.93,1.13,8,8,0,0,1-2.31.34,9.32,9.32,0,0,1-3.73-.69,2.89,2.89,0,0,1-.32-.18,1.85,1.85,0,0,1-.43.35,2.92,2.92,0,0,1-1.46.37,1.65,1.65,0,0,1-1.19-.52,2.45,2.45,0,0,1-.6-1l-.3-1h-4.25l-.21.67c-.44,1.5-1.28,1.82-1.9,1.82a2.88,2.88,0,0,1-1.44-.37,1.91,1.91,0,0,1-.36-.27l-.06.07a2.16,2.16,0,0,1-3.07-.16l-5-5.83V22a2.06,2.06,0,0,1-.53,1.43A2,2,0,0,1,136,24a2,2,0,0,1-2.1-2.06V20.65a6.14,6.14,0,0,1-1.57,1.93,6.6,6.6,0,0,1-2.19,1.2,8.39,8.39,0,0,1-2.56.39,8.18,8.18,0,0,1-2.83-.49,6.64,6.64,0,0,1-2.35-1.46,6.17,6.17,0,0,1-1.13-1.48c0,.2-.05.4-.09.58a3.37,3.37,0,0,1-.82,1.56,3.61,3.61,0,0,1-1.54,1,5.79,5.79,0,0,1-1.87.31,7.21,7.21,0,0,1-2.63-.49,2,2,0,0,1-1.5-1.93,1.7,1.7,0,0,1,.54-1.23,2,2,0,0,1,1.34-.59,2.82,2.82,0,0,1,1.35.38,1.71,1.71,0,0,0,.66.24c.3,0,.45-.35.45-1.05V12.59a2.14,2.14,0,0,1,3.65-1.44,2,2,0,0,1,.55,1.44v1.08A6.26,6.26,0,0,1,122.83,12a7.29,7.29,0,0,1,4.77-1.63,8.07,8.07,0,0,1,2.92.51,6.72,6.72,0,0,1,2.28,1.46,6.4,6.4,0,0,1,1.14,1.52V12.45a1.85,1.85,0,0,1,.57-1.37A2.06,2.06,0,0,1,136,10.5a2.2,2.2,0,0,1,1.72.81l4.87,5.6V12.56a2,2,0,0,1,2.1-2.06,2,2,0,0,1,1.54.63,2,2,0,0,1,.54,1.43v6.66l2.74-6.87A3.07,3.07,0,0,1,150.54,11,3.06,3.06,0,0,1,154,11a3,3,0,0,1,1.06,1.36l3.08,7.73a1.87,1.87,0,0,1,1-.29l1,.16,1.06.37a3.83,3.83,0,0,0,1.28.24,1.45,1.45,0,0,0,.83-.24.56.56,0,0,0,.27-.51.47.47,0,0,0-.23-.46l-.66-.3-1.3-.37A12.14,12.14,0,0,1,159.3,18a3.52,3.52,0,0,1-1.41-1.19,3.45,3.45,0,0,1-.53-2,3.79,3.79,0,0,1,.77-2.35,4.81,4.81,0,0,1,2-1.53,6.61,6.61,0,0,1,2.6-.52l1.71.16a4.91,4.91,0,0,1,1.69.61,1.66,1.66,0,0,1,.88,1.46,1.8,1.8,0,0,1-.54,1.31,2,2,0,0,1-1.42.57l-.66-.08-.56-.19a3.63,3.63,0,0,0-1.17-.21,1.48,1.48,0,0,0-.74.19.31.31,0,0,0-.2.3c0,.09,0,.35.82.55l.82.2a9.43,9.43,0,0,1,3.25,1.38A3.21,3.21,0,0,1,168,19.39ZM152.29,15.6,151.45,18h1.69l-.85-2.42Zm-27.44,1.61a4.81,4.81,0,0,0,.32,1.73,2.83,2.83,0,0,0,.93,1.26,2.37,2.37,0,0,0,1.51.45,2.43,2.43,0,0,0,1.52-.44A2.7,2.7,0,0,0,130,19a5,5,0,0,0,.31-1.77,4.45,4.45,0,0,0-.32-1.69,2.59,2.59,0,0,0-.93-1.19,2.55,2.55,0,0,0-1.52-.43,2.5,2.5,0,0,0-1,.21,2.61,2.61,0,0,0-.85.58,3.49,3.49,0,0,0-.85,2.51" transform="translate(-2.02 -3.38)"/><path class="cls-1" d="M2,12.4H6.3a4.32,4.32,0,0,1,1.46.23,3.1,3.1,0,0,1,1.08.64,2.81,2.81,0,0,1,.68,1,3.2,3.2,0,0,1,.24,1.25,3.45,3.45,0,0,1-.25,1.42,3,3,0,0,1-.58.89,2.39,2.39,0,0,1-.67.49l-.53.23L10,22.63H7.8l-2-3.77H4v3.77H2ZM4,17.17h2.1a1.81,1.81,0,0,0,1.21-.41,1.58,1.58,0,0,0,0-2.26,2.24,2.24,0,0,0-1.49-.41H4Z" transform="translate(-2.02 -3.38)"/><path class="cls-1" d="M14,15.17a4.11,4.11,0,0,1,1.58.29,3.3,3.3,0,0,1,1.17.8,3.5,3.5,0,0,1,.73,1.21,4.7,4.7,0,0,1,0,3,3.48,3.48,0,0,1-.72,1.21,3.29,3.29,0,0,1-1.17.8,4.48,4.48,0,0,1-3.16,0,3.29,3.29,0,0,1-1.17-.8,3.49,3.49,0,0,1-.73-1.21,4.7,4.7,0,0,1,0-3,3.49,3.49,0,0,1,.72-1.21,3.3,3.3,0,0,1,1.17-.8A4.08,4.08,0,0,1,14,15.17Zm0,1.61a1.73,1.73,0,0,0-.83.19,1.82,1.82,0,0,0-.59.49,2,2,0,0,0-.35.7,3,3,0,0,0,0,1.66,2,2,0,0,0,.35.7,1.82,1.82,0,0,0,.59.49,1.92,1.92,0,0,0,1.66,0,1.83,1.83,0,0,0,.59-.49,2,2,0,0,0,.35-.7,3,3,0,0,0,0-1.66,2,2,0,0,0-.35-.7,1.82,1.82,0,0,0-.59-.49A1.74,1.74,0,0,0,14,16.78Z" transform="translate(-2.02 -3.38)"/><path class="cls-1" d="M18.72,15.33h1.76v.62h0a3,3,0,0,1,.91-.58,3,3,0,0,1,1.16-.21,2.68,2.68,0,0,1,1.27.3,3.14,3.14,0,0,1,1,.82,3.84,3.84,0,0,1,.65,1.21,4.88,4.88,0,0,1,0,3,3.83,3.83,0,0,1-.65,1.21,3.11,3.11,0,0,1-1,.82,3.1,3.1,0,0,1-2.55.06,2.84,2.84,0,0,1-.81-.63v3H18.73Zm3.44,5.84A1.6,1.6,0,0,0,23,21a1.55,1.55,0,0,0,.53-.51,2.17,2.17,0,0,0,.29-.71,3.61,3.61,0,0,0,0-1.57,2.17,2.17,0,0,0-.29-.71A1.56,1.56,0,0,0,23,17a1.61,1.61,0,0,0-.82-.19,1.48,1.48,0,0,0-1.35.71,2.17,2.17,0,0,0-.29.71,3.6,3.6,0,0,0,0,1.57,2.17,2.17,0,0,0,.29.71,1.48,1.48,0,0,0,1.35.7Z" transform="translate(-2.02 -3.38)"/><path class="cls-1" d="M32.79,21.37a2.56,2.56,0,0,0,.1.83,2.33,2.33,0,0,0,.17.39H31.21a1,1,0,0,1-.13-.32,1.57,1.57,0,0,1,0-.34,3.68,3.68,0,0,1-2.37.84,2.91,2.91,0,0,1-1-.16,2.31,2.31,0,0,1-.79-.45,2.15,2.15,0,0,1-.53-.72,2.29,2.29,0,0,1-.2-1,2.08,2.08,0,0,1,.19-.93,2,2,0,0,1,.51-.66,2.72,2.72,0,0,1,.71-.43,4.53,4.53,0,0,1,.8-.25l.73-.15.5-.09.53-.11.48-.12.4-.12v-.22a.73.73,0,0,0-.4-.73,2.25,2.25,0,0,0-1-.19,1.7,1.7,0,0,0-1.07.25,1.07,1.07,0,0,0-.29.85l-1.76-.07a2.15,2.15,0,0,1,.26-1.09,2.21,2.21,0,0,1,.69-.74,3,3,0,0,1,1-.42,5.18,5.18,0,0,1,1.17-.13,8.26,8.26,0,0,1,1.15.08,2.76,2.76,0,0,1,1,.34,1.92,1.92,0,0,1,.71.73,2.52,2.52,0,0,1,.27,1.25ZM31,19a2.88,2.88,0,0,1-.83.26l-1,.2a3,3,0,0,0-.86.3.74.74,0,0,0-.35.71.78.78,0,0,0,.33.66,1.32,1.32,0,0,0,.81.24,2.73,2.73,0,0,0,.63-.08,2.24,2.24,0,0,0,.6-.24,1.41,1.41,0,0,0,.45-.42A1,1,0,0,0,31,20Z" transform="translate(-2.02 -3.38)"/><path class="cls-1" d="M42.64,21.87h0a2.4,2.4,0,0,1-2,.88,2.76,2.76,0,0,1-1.29-.3,3.11,3.11,0,0,1-1-.82,3.83,3.83,0,0,1-.65-1.21,4.88,4.88,0,0,1,0-3,3.84,3.84,0,0,1,.65-1.21,3.11,3.11,0,0,1,1-.82,2.76,2.76,0,0,1,1.29-.3,3,3,0,0,1,1.16.21,3,3,0,0,1,.92.58V12.32h1.76l0,10.25H42.65ZM41,16.73a1.48,1.48,0,0,0-1.35.71,2.18,2.18,0,0,0-.29.71,3.61,3.61,0,0,0,0,1.57,2.16,2.16,0,0,0,.29.71,1.57,1.57,0,0,0,.53.51,1.85,1.85,0,0,0,1.65,0,1.56,1.56,0,0,0,.53-.51,2.18,2.18,0,0,0,.29-.71,3.61,3.61,0,0,0,0-1.57,2.17,2.17,0,0,0-.29-.71,1.56,1.56,0,0,0-.53-.51A1.6,1.6,0,0,0,41,16.73Z" transform="translate(-2.02 -3.38)"/><path class="cls-1" d="M47.22,19.34a1.82,1.82,0,0,0,.17.73,1.69,1.69,0,0,0,.43.56,2,2,0,0,0,.6.36,1.88,1.88,0,0,0,.69.13,2.57,2.57,0,0,0,1.5-.44,1.74,1.74,0,0,0,.39-.35l.21-.26,1.48.86a3.92,3.92,0,0,1-.51.63,3.69,3.69,0,0,1-.74.58,4,4,0,0,1-1,.42,5,5,0,0,1-1.32.16,4.09,4.09,0,0,1-1.58-.29,3.31,3.31,0,0,1-1.17-.8,3.5,3.5,0,0,1-.73-1.21,4.7,4.7,0,0,1,0-3,3.49,3.49,0,0,1,.72-1.21,3.3,3.3,0,0,1,1.17-.8,4.08,4.08,0,0,1,1.58-.29,3.84,3.84,0,0,1,1.57.29,2.85,2.85,0,0,1,1.1.84,3.56,3.56,0,0,1,.64,1.33,7.17,7.17,0,0,1,.21,1.76ZM50.76,18a1.2,1.2,0,0,0-.09-.39,1.58,1.58,0,0,0-.3-.48,1.93,1.93,0,0,0-.51-.4,1.53,1.53,0,0,0-.76-.17,1.84,1.84,0,0,0-1.26.43,2,2,0,0,0-.62,1Z" transform="translate(-2.02 -3.38)"/><path class="cls-1" d="M58.73,14.08H55.92V12.3h7.54v1.79H60.66l0,8.47H58.74Z" transform="translate(-2.02 -3.38)"/><path class="cls-1" d="M63.35,15.25h1.76v1h0a1.9,1.9,0,0,1,.89-.91,3.13,3.13,0,0,1,1.35-.28v1.79a3.15,3.15,0,0,0-.86.12,2,2,0,0,0-.73.37,1.76,1.76,0,0,0-.5.66,2.42,2.42,0,0,0-.19,1v3.53H63.36Z" transform="translate(-2.02 -3.38)"/><path class="cls-1" d="M74.23,21.29a2.58,2.58,0,0,0,.1.83,2.22,2.22,0,0,0,.17.39H72.65a1,1,0,0,1-.13-.32,1.56,1.56,0,0,1,0-.34,3.68,3.68,0,0,1-2.37.84,2.93,2.93,0,0,1-1-.16,2.29,2.29,0,0,1-.79-.45,2.14,2.14,0,0,1-.53-.72,2.28,2.28,0,0,1-.2-1,2.09,2.09,0,0,1,.19-.93,2,2,0,0,1,.51-.66,2.76,2.76,0,0,1,.71-.43,4.55,4.55,0,0,1,.8-.25l.73-.14.5-.09.53-.11.48-.12.4-.12v-.22a.73.73,0,0,0-.4-.73,2.24,2.24,0,0,0-1-.19,1.7,1.7,0,0,0-1.06.25,1.07,1.07,0,0,0-.29.85L68,17.45a2.14,2.14,0,0,1,.26-1.1,2.21,2.21,0,0,1,.69-.74,3,3,0,0,1,1-.42,5.13,5.13,0,0,1,1.17-.13,8.26,8.26,0,0,1,1.15.08,2.75,2.75,0,0,1,1,.34,1.92,1.92,0,0,1,.71.73,2.51,2.51,0,0,1,.27,1.25Zm-1.76-2.42a2.85,2.85,0,0,1-.83.26l-1,.2a3,3,0,0,0-.86.3.74.74,0,0,0-.35.71.78.78,0,0,0,.33.66,1.32,1.32,0,0,0,.81.24,2.73,2.73,0,0,0,.63-.08,2.21,2.21,0,0,0,.6-.24,1.4,1.4,0,0,0,.45-.42,1,1,0,0,0,.18-.61Z" transform="translate(-2.02 -3.38)"/><path class="cls-1" d="M75.57,12.26h1.76v3.59a2.92,2.92,0,0,1,2.07-.8,2.75,2.75,0,0,1,1.29.3,3.11,3.11,0,0,1,1,.82,3.85,3.85,0,0,1,.65,1.21,4.89,4.89,0,0,1,0,3,3.88,3.88,0,0,1-.65,1.21,3.12,3.12,0,0,1-1,.82,2.76,2.76,0,0,1-1.29.3,2.4,2.4,0,0,1-2-.87h0v.71H75.59ZM79,16.66a1.48,1.48,0,0,0-1.35.71,2.17,2.17,0,0,0-.29.71,3.6,3.6,0,0,0,0,1.57,2.17,2.17,0,0,0,.29.71,1.58,1.58,0,0,0,.53.51,1.84,1.84,0,0,0,1.65,0,1.55,1.55,0,0,0,.53-.51,2.2,2.2,0,0,0,.29-.71,3.6,3.6,0,0,0,0-1.57,2.19,2.19,0,0,0-.29-.71,1.56,1.56,0,0,0-.53-.51A1.6,1.6,0,0,0,79,16.66Z" transform="translate(-2.02 -3.38)"/><path class="cls-1" d="M89.65,21.27a2.59,2.59,0,0,0,.1.84,2.23,2.23,0,0,0,.17.39H88.07a.94.94,0,0,1-.13-.32,1.56,1.56,0,0,1,0-.34,3.68,3.68,0,0,1-2.37.84,2.92,2.92,0,0,1-1-.16,2.29,2.29,0,0,1-.79-.45,2.14,2.14,0,0,1-.53-.72,2.28,2.28,0,0,1-.2-1,2.1,2.1,0,0,1,.19-.93,2,2,0,0,1,.51-.66,2.74,2.74,0,0,1,.71-.43,4.5,4.5,0,0,1,.8-.25L86,18l.5-.09.53-.11.48-.12.4-.12v-.22a.73.73,0,0,0-.4-.73,2.24,2.24,0,0,0-1-.19,1.7,1.7,0,0,0-1.06.25,1.07,1.07,0,0,0-.29.85l-1.76-.07a2.15,2.15,0,0,1,.26-1.09,2.2,2.2,0,0,1,.69-.74,3,3,0,0,1,1-.42A5.16,5.16,0,0,1,86.5,15a8.32,8.32,0,0,1,1.15.08,2.76,2.76,0,0,1,1,.34,1.92,1.92,0,0,1,.71.73,2.5,2.5,0,0,1,.27,1.25Zm-1.76-2.42a2.85,2.85,0,0,1-.83.26l-1,.2a3,3,0,0,0-.86.3.74.74,0,0,0-.35.71.78.78,0,0,0,.33.66,1.32,1.32,0,0,0,.81.24,2.73,2.73,0,0,0,.63-.08,2.2,2.2,0,0,0,.6-.24,1.4,1.4,0,0,0,.45-.42,1,1,0,0,0,.18-.61Z" transform="translate(-2.02 -3.38)"/><path class="cls-1" d="M92.77,23.28a1.5,1.5,0,0,1-.21.84,1.4,1.4,0,0,1-.55.49,2.6,2.6,0,0,1-.79.24,6.13,6.13,0,0,1-.88.07H90.1V23.3h.07l.24,0a.91.91,0,0,0,.27-.09.67.67,0,0,0,.22-.18.49.49,0,0,0,.09-.32V15.2h1.76ZM91,12.24h1.76V14H91Z" transform="translate(-2.02 -3.38)"/><path class="cls-1" d="M97.46,15A4.1,4.1,0,0,1,99,15.3a3.3,3.3,0,0,1,1.18.8,3.5,3.5,0,0,1,.73,1.21,4.7,4.7,0,0,1,0,3,3.49,3.49,0,0,1-.72,1.21,3.28,3.28,0,0,1-1.17.8,4.48,4.48,0,0,1-3.16,0,3.29,3.29,0,0,1-1.17-.8A3.48,3.48,0,0,1,94,20.36a4.71,4.71,0,0,1,0-3,3.51,3.51,0,0,1,.72-1.21,3.32,3.32,0,0,1,1.17-.8A4.11,4.11,0,0,1,97.46,15Zm0,1.61a1.74,1.74,0,0,0-.83.19,1.83,1.83,0,0,0-.59.49,2.05,2.05,0,0,0-.35.7,2.94,2.94,0,0,0-.11.83,3,3,0,0,0,.12.83,2,2,0,0,0,.35.7,1.83,1.83,0,0,0,.59.49,1.92,1.92,0,0,0,1.66,0,1.84,1.84,0,0,0,.59-.49,2,2,0,0,0,.35-.7,3,3,0,0,0,0-1.66,2,2,0,0,0-.35-.7,1.85,1.85,0,0,0-.59-.49A1.74,1.74,0,0,0,97.46,16.63Z" transform="translate(-2.02 -3.38)"/><path class="cls-1" d="M102.35,20.48h1.93v2h-1.93Z" transform="translate(-2.02 -3.38)"/><rect class="cls-1" x="107.04" width="0.43" height="23.25"/></svg>